<?xml version="1.0" encoding="UTF-8"?>
<!DOCTYPE svg PUBLIC "-//W3C//DTD SVG 1.1//EN" "http://www.w3.org/Graphics/SVG/1.1/DTD/svg11.dtd">
<!-- Creator: CorelDRAW 2021.5 -->
<svg xmlns="http://www.w3.org/2000/svg" xml:space="preserve" width="6.8792mm" height="4.8466mm" version="1.1" style="shape-rendering:geometricPrecision; text-rendering:geometricPrecision; image-rendering:optimizeQuality; fill-rule:evenodd; clip-rule:evenodd"
viewBox="0 0 797.87 562.12"
 xmlns:xlink="http://www.w3.org/1999/xlink"
 xmlns:xodm="http://www.corel.com/coreldraw/odm/2003">
 <defs>
  <style type="text/css">
   <![CDATA[
    .fil0 {fill:#FAFAFA;fill-rule:nonzero}
   ]]>
  </style>
 </defs>
 <g id="Слой_x0020_1">
  <metadata id="CorelCorpID_0Corel-Layer"/>
  <path class="fil0" d="M781.19 87.76c-4.51,-16.98 -13.41,-32.48 -25.78,-44.93 -12.39,-12.46 -27.81,-21.45 -44.76,-26.06 -62.39,-16.77 -311.72,-16.77 -311.72,-16.77 0,0 -249.33,0 -311.72,16.77 -16.95,4.62 -32.37,13.6 -44.76,26.06 -12.38,12.46 -21.27,27.95 -25.77,44.93 -16.69,62.64 -16.69,193.3 -16.69,193.3 0,0 0,130.66 16.69,193.3 4.5,16.98 13.4,32.48 25.77,44.93 12.39,12.46 27.81,21.45 44.76,26.06 62.39,16.77 311.72,16.77 311.72,16.77 0,0 249.33,0 311.72,-16.77 16.95,-4.62 32.37,-13.6 44.76,-26.06 12.38,-12.46 21.27,-27.95 25.78,-44.93 16.68,-62.64 16.68,-193.3 16.68,-193.3 0,0 0,-130.66 -16.68,-193.3zm-463.05 307.05l0 -237.28 208.54 118.64 -208.54 118.64z"/>
 </g>
</svg>
